<svg xmlns="http://www.w3.org/2000/svg" width="16" height="22" viewBox="0 -2 16 22"><path d="M17.84,20.17l1.06-2.12H7.63a1.24,1.24,0,0,0-1.27,1.2v1.06a1.32,1.32,0,0,0,.2.68,3.66,3.66,0,0,1-1.79-3.14V7.15A3.66,3.66,0,0,1,8.42,3.5h9.42A1.48,1.48,0,0,1,19.32,5V20.05a1.46,1.46,0,0,1-.51,1.1Zm-8.9-9.9a.86.86,0,0,0-.85.86v1a.85.85,0,0,0,.85.85H16a.85.85,0,0,0,.85-.85v-1a.86.86,0,0,0-.85-.86ZM8.94,6a.86.86,0,0,0-.85.86v1a.85.85,0,0,0,.85.85H16a.85.85,0,0,0,.85-.85v-1A.86.86,0,0,0,16,6Z" transform="translate(-4.27 -3)"/><path d="M17.84,4a1,1,0,0,1,1,1V17.55H7.63a1.74,1.74,0,0,0-1.77,1.71v.42a3.12,3.12,0,0,1-.59-1.83V7.15A3.16,3.16,0,0,1,8.42,4h9.42M8.94,9.18H16a1.35,1.35,0,0,0,1.35-1.35v-1A1.35,1.35,0,0,0,16,5.45H8.94A1.36,1.36,0,0,0,7.59,6.81v1A1.36,1.36,0,0,0,8.94,9.18m0,4.32H16a1.35,1.35,0,0,0,1.35-1.35v-1A1.35,1.35,0,0,0,16,9.77H8.94a1.36,1.36,0,0,0-1.35,1.36v1A1.36,1.36,0,0,0,8.94,13.5m9.88,5.83v.72a1,1,0,0,1-.06.34l-.32-.31.38-.75M17.84,3H8.42A4.15,4.15,0,0,0,4.27,7.15v10.7A4.15,4.15,0,0,0,8.42,22h9.44a2,2,0,0,0,2-1.95V5a2,2,0,0,0-2-2ZM8.94,8.18a.35.35,0,0,1-.35-.35v-1a.36.36,0,0,1,.35-.36H16a.35.35,0,0,1,.35.36v1a.35.35,0,0,1-.35.35Zm0,4.32a.35.35,0,0,1-.35-.35v-1a.36.36,0,0,1,.35-.36H16a.35.35,0,0,1,.35.36v1a.35.35,0,0,1-.35.35Zm9.15,6.05-.86,1.72.86.87H7.76a.87.87,0,0,1-.9-.83v-1a.74.74,0,0,1,.77-.71Z" transform="translate(-4.27 -3)"/></svg>