<svg xmlns="http://www.w3.org/2000/svg" width="20" height="15" viewBox="0 0 18 13"><path d="M4.69,17.5A1.19,1.19,0,0,1,3.5,16.31V6.69A1.19,1.19,0,0,1,4.69,5.5H19.31A1.19,1.19,0,0,1,20.5,6.69v9.62a1.19,1.19,0,0,1-1.19,1.19Zm7.74-2H17.5V11h-2v-.18h2V8.61H12.43v4.53h2v.18h-2Zm-5.93,0h5.07V8.61H9.08v4L6.5,11.79Z" transform="translate(-3 -5)"/><path d="M19.31,6a.69.69,0,0,1,.69.69v9.62a.69.69,0,0,1-.69.69H4.69A.69.69,0,0,1,4,16.31V6.69A.69.69,0,0,1,4.69,6H19.31M12.07,8.11H8.58v3.83l-1.27-.42L6,11.1V16H18V8.11H12.07M19.31,5H4.69A1.69,1.69,0,0,0,3,6.69v9.62A1.69,1.69,0,0,0,4.69,18H19.31A1.69,1.69,0,0,0,21,16.31V6.69A1.69,1.69,0,0,0,19.31,5Zm-6.38,7.64V9.11H17v1.18H15v1.18h2V15H12.93V13.82h2V12.64Zm-3.35.68V9.11h1.49V15H7V12.48l2.58.84Z" transform="translate(-3 -5)"/></svg>